<svg xmlns="http://www.w3.org/2000/svg" width="2000" height="2000" fill="gray" xmlns:v="https://vecta.io/nano">
    <path d="M969.073 81.839l2.62-.029 2.853-.013 2.919-.017 6.133-.02 9.369-.072 5.953-.016 2.829-.037c5.035.017 8.047.334 12.249 3.366l3.5.438c4.117.662 5.371 1.881 8.5 4.563 1.485.86 2.987 1.691 4.5 2.5 3.494 1.891 6.429 3.967 9.5 6.5l4.375 2.813c3.848 2.523 6.96 5.315 10.117 8.648 1.574 1.686 1.574 1.686 3.945 3.352L1060 115v2l2 .688c6.282 2.748 11.332 6.266 16 11.313l2.25 2.25c1.548 1.548 3.084 3.11 4.574 4.715 4.23 4.449 8.588 8.118 13.676 11.535 6.013 4.067 10.965 8.784 16 14 5.502 5.7 10.946 10.566 17.53 14.958 5.403 3.666 9.776 8.095 14.294 12.78 4.696 4.847 9.519 9.08 15.176 12.762 8.433 5.503 15.241 12.647 22.221 19.845l1.888 1.924 1.687 1.738c1.655 1.583 1.655 1.583 3.791 2.507C1193 229 1193 229 1195 232l5.079 2.786c3.441 2.174 6.076 5.148 8.859 8.089 4.267 4.398 8.424 8.549 13.512 12.012C1224 256 1224 256 1225.441 257.473c1.793 1.757 3.687 2.935 5.809 4.277 5.861 4.011 10.648 8.93 15.571 14.007l1.858 1.915 1.648 1.722c1.685 1.695 1.685 1.695 3.88 3.189L1256 284v2l2.125.75c6.911 3.005 11.524 7.714 16.688 13.063 9.038 9.498 9.038 9.498 19.999 16.47 3.368 1.815 5.531 3.731 8.192 6.464l2.744 2.787 2.814 2.904 5.566 5.684 2.471 2.545c3.087 3.002 6.215 5.631 9.92 7.83 6.676 4.048 12.172 10.149 17.605 15.691 6.057 6.114 12.675 10.78 19.895 15.418 1.901 1.339 3.471 2.627 4.98 4.395v2l1.688.688c3.661 2.078 6.255 5.167 9.094 8.242l1.969 2.07 1.797 1.938c2.22 1.866 4.106 2.964 6.664 4.27 5.481 2.942 9.41 7.003 13.664 11.48l4.43 4.574 1.937 2.03c1.849 1.9 1.849 1.9 4.758 3.708v2l2.313.813c2.682 1.185 3.684 2.145 5.688 4.188l4.063 3.063c4.546 3.485 8.447 7.41 12.441 11.504 3.01 2.935 6.208 5.466 9.586 7.961 1.91 1.473 1.91 1.473 3.269 2.898 1.809 1.736 3.673 2.93 5.805 4.247 5.037 3.301 9.059 7.244 13.211 11.578l4.148 4.266 1.81 1.884c1.779 1.803 1.779 1.803 4.667 3.601v2l2.125.75c6.889 2.995 11.434 7.656 16.563 13 6.816 6.965 13.621 12.865 22.031 17.867 5.756 3.838 10.33 9.358 15.117 14.297 5.345 5.448 10.803 10.086 17.08 14.404 4.893 3.383 8.932 7.454 13.084 11.682 5.4 5.493 10.754 10.235 17.22 14.445 7.521 5.024 13.455 11.06 19.636 17.615 3.801 3.93 7.299 7.226 12.094 9.893 6.113 3.419 10.566 8.196 15.363 13.234l5.176 5.355 2.267 2.376c2.271 2.106 4.589 3.513 7.245 5.081l1 2 5.031 2.805c4.994 3.032 8.789 6.903 12.371 11.48 3.092 3.319 6.793 5.985 10.367 8.762L1678 648v2l2 .625c8.076 3.701 13.962 10.162 20.076 16.437 2.373 2.429 4.616 4.709 7.346 6.739L1709 675v2l2.125.75c5.726 2.49 9.946 6.101 14.25 10.563 4.909 5.022 9.972 9.754 15.449 14.152 1.421 1.143 2.803 2.334 4.176 3.535v2l2 .625c7.102 3.255 12.196 8.526 17.563 14.063 4.658 4.797 9.379 8.943 14.875 12.75 6.453 4.475 11.889 9.567 17.289 15.261 5.344 5.596 11.126 9.947 17.66 14.067 5.506 3.626 9.879 8.247 14.426 12.984l4.957 5.109 2.175 2.265c1.968 1.796 3.7 2.7 6.055 3.876l2 3 5 3a125.39 125.39 0 0 1 4.625 4.063l2.637 2.402 5.445 5.102 2.73 2.559 2.434 2.32c2.579 2.269 5.384 3.951 8.324 5.719 6.274 3.914 11.151 8.766 16.242 14.086l5.184 5.328 2.263 2.356c2.052 2.103 2.052 2.103 4.389 3.717L1905 844v2l1.781.766c9.728 5.412 15.307 18.305 19.219 28.234l1 1c.126 2.826.189 5.626.203 8.453l.017 2.583.02 5.427.072 8.283.016 5.27.037 2.497c-.018 4.759-.52 7.507-3.366 11.487l-1 3.5c-.964 3.373-2.164 5.549-4 8.5l-1.309 2.359c-3.628 6.418-7.89 11.481-13.129 16.641l-2.197 2.27c-4.344 4.333-7.365 6.492-13.365 7.73l-1 2c-2.764.608-5.532.959-8.336 1.34-2.691.382-2.691.382-3.888 2.174-2.773 2.32-5.303 1.893-8.858 1.919l-2.096.016a430.12 430.12 0 0 1-4.39-.003c-2.226-.008-4.45.02-6.676.052-1.425.002-2.85.001-4.275-.002l-3.909.006c-4.145-.582-6.209-2.092-9.571-4.502l-5.926-.465c-3.438-.887-5.496-3.251-7.922-5.746-2.16-1.992-2.16-1.992-5.387-3.016-5.022-2.009-8.296-5.913-11.953-9.773l-4.168-4.312-1.833-1.926c-1.798-1.835-1.798-1.835-4.04-3.367L1793 934v-2l-2.125-.75c-6.889-2.995-11.434-7.656-16.562-13-6.052-6.185-12.025-11.539-19.312-16.25-9.669-6.26-9.669-6.26-12.062-11.187-.789-1.968-.789-1.968-2.785-2.707-2.417-1.241-3.708-2.597-5.527-4.605-3.41-3.523-7.073-6.275-11.125-9-6.697-4.551-12.245-9.937-17.818-15.791-4.248-4.432-8.659-8.181-13.682-11.709-5.484-3.857-10.232-8.114-14.928-12.89-5.185-5.268-10.366-10.075-16.572-14.11-8.433-5.503-15.241-12.647-22.221-19.845l-1.888-1.924-1.687-1.738c-1.655-1.583-1.655-1.583-3.791-2.507C1629 793 1629 793 1627 790l-5.079-2.786c-3.441-2.174-6.076-5.148-8.859-8.089-4.267-4.398-8.424-8.549-13.512-12.012C1598 766 1598 766 1596.559 764.527c-1.793-1.757-3.687-2.935-5.809-4.277-5.792-3.969-10.529-8.809-15.396-13.831-4.723-4.869-9.374-9.381-15.292-12.794-4.765-3.086-8.503-6.953-12.437-11-6.574-6.756-13.21-12.401-21.348-17.246-5.755-3.836-10.328-9.355-15.113-14.293-4.773-4.865-9.569-9.193-15.164-13.086-6.693-4.817-12.424-10.266-18.127-16.201l-1.736-1.787-1.54-1.611c-1.751-1.537-3.5-2.405-5.596-3.401l-3-3c-1.648-1.193-3.317-2.358-5-3.5-5.881-3.991-5.881-3.991-8-6.5v-2l-1.687-.687c-2.959-1.68-4.937-3.88-7.312-6.312l-3.125-2.625C1438 628 1438 628 1436.581 626.519c-1.787-1.717-3.65-2.9-5.757-4.203-4.961-3.252-8.924-7.108-13.012-11.379-7.95-8.449-7.95-8.449-17.437-15-5.235-3.159-9.242-7.647-13.473-11.992-4.326-4.435-8.975-8.428-13.84-12.258C1371 570 1371 570 1370 568c-1.323-.744-2.675-1.438-4.039-2.105-5.393-2.912-9.172-6.772-13.336-11.207-5.475-5.662-10.77-10.644-17.285-15.082-5.871-4.029-10.802-9.046-15.777-14.105-4.952-5.022-10.089-9.976-16.273-13.465-6.31-3.627-10.919-8.484-15.914-13.722-5.62-5.773-11.076-11.294-17.812-15.75-6.444-4.268-11.592-9.297-16.918-14.875-2.543-2.767-2.543-2.767-5.645-4.687v-2l-2.437-.875C1242 459 1242 459 1241 457c-1.304-.728-2.637-1.406-3.98-2.059-5.728-3.092-9.861-7.337-14.332-12.004l-2.377-2.432-4.347-4.479L1214 434l-1.987-2.12c-2.017-1.883-3.767-2.922-6.24-4.11-5.323-2.851-9.046-6.713-13.148-11.082-6.157-6.362-12.148-11.895-19.625-16.687-4.13-2.671-7.59-5.415-11-9l-2.25-2.25-4.926-4.961-2.387-2.414-2.254-2.289c-2.115-2.114-2.115-2.114-4.461-3.734L1144 374v-2l-2.141-.187c-3.72-1.057-5.903-3.184-8.609-5.812l-1.587-1.495c-3.207-3.039-6.319-6.164-9.413-9.318-3.811-3.859-7.845-7.041-12.25-10.187-6.051-4.423-11.343-9.231-16.594-14.578-4.639-4.669-9.382-8.833-14.906-12.422-7.62-4.959-13.876-11.26-20.2-17.737-4.22-4.296-8.543-7.785-13.608-11.013-4.87-3.21-8.75-7.036-12.754-11.25-4.503-4.711-8.958-8.987-14.277-12.773C1016 264 1016 264 1014.062 262c-2.028-1.966-4-3.297-6.375-4.812-5.732-3.736-10.168-8.251-14.437-13.563-2.046-2.843-2.046-2.843-5.25-3.625l-2.062 2.125c-3.781 3.77-7.653 7.559-12.297 10.234-3.12 1.938-5.723 4.265-8.391 6.766l-1.58 1.463c-4.025 3.749-7.907 7.631-11.775 11.541-2.845 2.81-5.708 5.201-9.191 7.168-3.064 1.93-5.546 4.118-8.203 6.578l-1.56 1.436c-2.828 2.628-5.576 5.316-8.26 8.091-5.453 5.634-10.37 10.66-17.461 14.254-2.867 1.736-4.894 3.934-7.219 6.344l-5.687 5.188c-3.989 3.613-7.819 7.317-11.562 11.188-3.437 3.492-6.765 6.232-11.059 8.59-1.87 1.145-3.176 2.456-4.691 4.035l-3.25 2.75c-2.944 2.539-5.713 5.199-8.434 7.973l-1.993 2.03-3.955 4.092c-5.78 5.918-5.78 5.918-10.368 7.155v2l-2.375.25L834 372l-.867 1.805c-1.476 2.86-3.324 4.125-5.883 6.07-5.48 4.335-10.331 9.084-15.126 14.164-3.512 3.638-6.999 6.338-11.418 8.812-2.014 1.2-2.014 1.2-3.706 4.149l-2.288 1.354c-3.175 1.927-5.558 4.313-8.098 6.978l-3.096 3.17-4.784 4.956c-5.788 6.017-11.146 11.394-18.625 15.322-2.964 1.714-5.092 3.972-7.417 6.454-1.708 1.783-3.495 3.359-5.379 4.953-2.527 2.163-4.921 4.401-7.242 6.781l-1.568 1.605-3.027 3.164c-3.504 3.613-6.969 5.996-11.476 8.263h-2l-1 3c-1.571 1.541-1.571 1.541-3.57 3.184-3.653 3.097-6.993 6.372-10.315 9.817-5.646 5.851-10.872 11.102-18.142 14.913-2.832 1.559-4.793 3.725-6.973 6.086l-2.875 2.313c-3.306 2.672-5.92 5.836-8.609 9.113L669 520h-2l-.687 1.75c-2.008 3.442-4.873 5.345-8.219 7.449-8.534 5.395-15.687 12.305-22.727 19.484l-1.857 1.889-3.527 3.656c-3.696 3.797-7.223 6.412-11.984 8.771h-2l-.801 1.824c-1.265 2.295-2.357 3.362-4.387 4.988-3.64 3.05-6.932 6.328-10.23 9.734-5.445 5.61-10.46 10.724-17.531 14.278-2.211 1.149-2.211 1.149-4.195 3.32L577 599h-2l-1 3c-1.426 1.402-1.426 1.402-3.312 2.938-4.37 3.685-8.345 7.678-12.298 11.799-3.194 3.27-6.404 5.951-10.389 8.264h-3l-.773 1.797c-1.354 2.431-2.711 3.69-4.856 5.445-2.925 2.474-5.674 5.01-8.336 7.766l-1.986 2.051-3.961 4.156c-4.051 4.158-7.906 6.985-13.06 9.639-2.852 1.612-4.828 3.739-7.028 6.146l-3.016 2.797-1.589 1.453-1.646 1.5c-3.949 3.61-7.788 7.269-11.5 11.125-3.469 3.533-7.087 6.251-11.305 8.836-1.925 1.275-3.353 2.628-4.945 4.289l-3.25 2.75c-5.053 4.376-9.703 9.151-14.382 13.919-3.989 4.043-7.87 7.881-12.817 10.753-3.128 1.936-5.704 4.312-8.363 6.828l-3.203 2.984-1.557 1.451c-1.792 1.65-3.635 3.235-5.49 4.814-2.813 2.421-5.417 4.989-8.003 7.65-4.122 4.24-8.086 7.946-13.282 10.858-2.224 1.336-3.862 3.133-5.652 4.992h-2l-1 3c-1.566 1.539-1.566 1.539-3.562 3.18-5.145 4.363-9.777 9.165-14.437 14.035-4.236 4.327-8.524 8.097-14 10.785h-2l-1 3c-1.637 1.648-1.637 1.648-3.687 3.375l-2.18 1.855-3.891 3.195c-2.866 2.326-5.054 4.62-7.242 7.574h-2l-.687 1.75C334.593 815.412 329.5 818.2 325 821h-2l-.694 1.749c-1.65 2.844-3.59 4.266-6.2 6.262-4.243 3.378-8.146 6.874-11.93 10.758l-1.461 1.495-5.888 6.101C291.272 853.152 286.378 857.699 279 861c-1.714 1.618-3.375 3.293-5 5l-2.796 2.859-1.478 1.518-6.662 6.779-3.476 3.558c-6.062 6.239-11.712 12.032-19.515 16.097-2.959 1.697-5.062 3.948-7.38 6.421-1.717 1.793-3.515 3.381-5.408 4.986-5.024 4.355-9.605 9.107-14.197 13.908-4.035 4.122-8.111 7.374-12.975 10.468-3.069 2.04-5.701 4.432-8.363 6.968l-1.484 1.381c-2.368 2.213-4.664 4.469-6.914 6.803-2.868 2.749-5.695 3.741-9.352 5.254-1.145.806-2.27 1.64-3.375 2.5-3.326 2.506-6.626 3.689-10.609 4.824-2.291.67-2.291.67-5.016 2.676-2.915.208-5.732.304-8.648.301l-2.574.013-5.391.002c-2.744-.003-5.486.02-8.229.046l-5.242.002-2.478.028c-4.754-.038-7.432-.61-11.436-3.391l-3.367-.297c-4.977-.963-7.26-3.44-10.758-6.953l-1.801-1.738-3.462-3.404-3.154-3.074c-1.19-1.14-2.329-2.332-3.458-3.533v-2l-3-1c-3.697-3.937-6.229-7.605-7-13l-1.488-1.359c-1.926-2.09-1.898-3.278-2.012-6.078-.111-3.469-.111-3.469-2.003-6.268-2.067-3.167-1.87-5.494-1.861-9.255l-.002-2.025.029-4.231.014-6.432c.061-15.091.061-15.091 3.322-18.352l.375-3.375c.676-3.921 1.017-4.069 3.625-6.625.81-1.867.81-1.867 1.375-3.875 1.422-4.058 3.413-6.219 6.625-9.125l2.375-2.937c2.326-2.852 4.931-5.154 7.781-7.473 2.41-2.078 4.609-4.325 6.844-6.59l3.156-3.156 1.66-1.66 6.641-6.633 2.992-3.07c1.148-1.195 2.345-2.343 3.551-3.48h2l.688-1.687c3.244-5.716 8.467-8.866 13.77-12.5 3.761-2.68 7.131-5.708 10.543-8.812l2.191-1.914c3.958-3.482 7.792-7.038 11.465-10.82l1.955-2.004 3.772-3.945c3.812-3.927 7.478-6.618 12.421-8.989 2.869-1.734 4.887-3.899 7.196-6.327l2.704-2.767 1.418-1.457 6.387-6.505 3.33-3.412c5.962-6.144 11.488-11.52 19.075-15.653 2.852-1.649 4.878-3.781 7.086-6.206l5.688-5.187a299.92 299.92 0 0 0 11.918-11.457l2.394-2.431 4.644-4.781c4.177-4.262 7.949-7.57 13.357-10.144h2l.781-1.805c1.327-2.39 2.608-3.595 4.719-5.312 3.29-2.784 6.358-5.688 9.375-8.766l2.547-2.598 5.156-5.312c4.829-4.91 9.341-8.936 15.422-12.207h2l.789-1.809c1.3-2.352 2.523-3.552 4.586-5.254 6.985-5.93 13.812-12.035 20.227-18.582l1.841-1.877 3.485-3.62c3.476-3.571 6.99-6.274 11.303-8.779 8.264-5.048 12.691-14.287 15.769-23.081l1.559-2.335c1.757-3.249 1.812-5.368 1.804-9.05l.014-3.93-.031-4.312.003-4.585-.032-12.604-.018-13.591-.044-23.551-.058-34.061-.082-55.273-.007-3.342-.027-13.408-.069-36.924-.006-3.34-.074-55.072-.062-33.989-.041-23.272-.03-13.441-.02-12.29-.014-4.459-.005-6.036-.007-3.394C365 212 365 212 367 209h2l.191-1.723c1.058-6.672 3.411-10.252 8.809-14.277 6.301-4.2 11.79-5.565 19.336-5.664 3.127-.394 4.197-1.46 6.664-3.336 4.657-1.038 9.256-1.159 14.006-1.177l2.363-.02 7.69-.041 2.665-.012 13.952-.045 14.378-.085 11.09-.038 5.3-.035 7.423-.016 2.19-.039c5.509.056 8.416 1.667 12.945 4.509 3.098.537 3.098.537 6.125.5 4.916.245 7.346.857 10.875 4.5l3 1 .438 1.938L519 197l1.875.938c2.869 1.434 3.63 3.277 5.125 6.063l2 3c.337 3.033.441 6.041.559 9.09.161 2.914.161 2.914 1.944 4.516 2.32 3.71 1.92 7.315 1.896 11.607l.02 2.856.014 9.498.031 6.8.043 18.482.06 19.307.087 32.412.084 33.385.007 2.079.034 10.324L533 453c4.653-.864 7.006-3.696 10.164-7.012l3.652-3.736 5.686-5.891c12.5-12.958 12.5-12.958 20.468-17.217 2.849-1.605 4.839-3.739 7.03-6.143l6-5.5c5.354-4.897 10.526-9.946 15.598-15.135 4.112-4.18 8.129-7.729 13.402-10.365l1.625-1.625L618 379h2l1-3c1.566-1.539 1.566-1.539 3.563-3.18 5.145-4.363 9.777-9.165 14.438-14.035 4.236-4.327 8.524-8.097 14-10.785h2l.789-1.809c1.3-2.352 2.523-3.552 4.586-5.254 3.561-3.019 7.055-6.099 10.5-9.25l1.551-1.415c3.387-3.114 6.621-6.342 9.824-9.648 3.437-3.492 6.765-6.232 11.059-8.59 1.874-1.147 3.143-2.478 4.691-4.035l3.559-3.051c6.045-5.258 11.543-11.073 17.107-16.83 4.492-4.568 8.487-8.42 14.334-11.119h2l.758-1.781c1.406-2.512 2.909-3.885 5.117-5.719 2.281-1.922 4.415-3.798 6.5-5.937C749 262 749 262 751 262l.688-1.687c1.688-2.974 3.779-5.033 6.313-7.313h2l.723-1.801c1.555-2.678 3.123-3.707 5.715-5.387 11.137-7.478 20.439-16.462 29.661-26.103 5.251-5.473 10.152-10.283 17.004-13.699 2.871-1.529 4.716-3.609 6.897-6.011l4.617-4.687 2.59-2.617 2.668-2.695 2.645-2.695C843.611 176.13 843.611 176.13 850 174a187.01 187.01 0 0 0 5-5l5.938-5.437c4.933-4.499 9.649-9.162 14.313-13.937 4.357-4.443 8.6-8.234 13.945-11.484 2.663-1.683 4.636-3.866 6.805-6.141l4.375-3.875a173.87 173.87 0 0 0 9.363-8.937l1.977-2.028 3.843-4.019c3.897-4.013 7.175-6.05 12.442-8.141 2.823-2.139 2.823-2.139 5.313-4.562l2.551-2.379L940 94l6-2a197.6 197.6 0 0 0 5-3c4.25-2.246 8.527-4.238 13-6 1.533-1.533 2.937-1.142 5.073-1.161z"/>
    <path d="M453.383 871.504l2.109-.004 4.392.034 6.721.008 4.277.025 3.918.03c3.414.431 4.128.819 6.199 3.404 2.429.537 2.429.537 5.125.75 5.597.865 8.66 2.933 12.887 6.59 2.043 1.844 2.043 1.844 5.113 3.16 7.496 3.911 11.324 10.499 15.297 17.73 1.485 2.747 1.485 2.747 3.25 4.973C524 910 524 910 524.5 912.563c.247 2.491.247 2.491 2 3.688 2.222 2.592 1.908 4.828 2 8.188-.092 4.516-.092 4.516 2.002 8.236 2.197 3.412 1.913 6.758 1.88 10.688l.015 2.592-.005 8.656.018 6.245.008 17.206.024 18.538.029 32.134.026 33.709.003 2.116.016 10.639.081 75.384.013 18.273.002 2.29.049 52.671.002 2.279.061 51.489.003 2.184.025 19.446.05 50.639.028 31.745.013 18.343.015 16.763.002 6.093.01 8.224-.006 2.439c-.318 3.568-.318 3.568 1.136 6.544 2.865.099 5.706.132 8.572.123l2.771.003 9.315-.006 6.697.003 18.498-.007 17.87-.002 36.573-.008 36.229-.011h2.273l11.425-.001 80.993-.018 78.699-.021h2.449l24.347-.004 49.6-.008h2.304L1075 1440c1.276-2.553 1.128-4.346 1.131-7.205l.012-3.343-.002-3.685.016-5.879.011-6.332.041-13.2.019-4.519.01-2.286.087-30.736.069-20.725.027-10.965.048-12.245-.02-3.655c.075-6.687.651-10.75 4.55-16.226l1.375-3c4.597-8.487 10.718-12.205 19.25-16.242 5.06-2.425 8.594-4.623 12.375-8.758h2l.018-1.94.245-20.002.084-7.464.142-10.731.019-3.369.06-3.154.034-2.766c.477-3.083 1.708-4.983 3.399-7.575.427-2.011.427-2.011.371-3.996l.053-2.193.016-4.484c.137-5.308 1.354-7.948 4.561-12.326.773-2.484.773-2.484 1.063-4.937a42.82 42.82 0 0 1 3.938-12.062l1.316-2.816c3.522-7.347 7.55-13.497 12.809-19.684 1.648-2.198 2.671-4.093 3.813-6.562 1.767-3.694 3.732-5.501 7.063-7.937l2.188-2.937c2.826-3.571 6.411-4.98 10.477-6.852 2.533-1.158 2.533-1.158 4.711-3.648 3.533-3.449 7.535-5.153 11.98-7.23 2.717-1.195 2.717-1.195 4.645-3.332 2.537-.857 5.101-1.527 7.688-2.219 2.471-.644 2.471-.644 4.313-2.781 2.451-.586 4.905-.952 7.395-1.34 2.677-.527 2.677-.527 4.912-2.177 3.082-1.697 4.905-1.863 8.399-1.871l3.398-.029 3.643.018 3.769-.009 9.901.026 6.052-.01 11.652-.007 3.637-.018c11.926.1 11.926.1 16.242 4.417 3.096.535 6.201.966 9.313 1.402l2.688.598 1 2 3.375.438c3.934.61 4.09.922 6.625 3.563l3.188.688c4.439 1.086 6.773 4.004 9.723 7.34 2.476 2.338 5.045 3.469 8.09 4.973 3.515 2.803 6.735 5.911 10 9l1.988 1.793c4.144 3.868 6.912 8.016 9.652 12.973 1.217 2.219 1.217 2.219 2.813 3.617 2.298 2.402 3.601 5.284 5.047 8.242l.932 1.886C1360 1176.988 1360 1176.988 1360 1182l3 1 .078 2.012.172 2.676.141 2.637c.417 2.825.417 2.825 2.616 4.933 2.452 3.375 2.492 5.171 2.491 9.306l.03 3.964-.012 2.103.016 6.545.031 11.531.056 18.466-.009 6.441.021 3.954-.003 3.48c.414 3.285 1.286 4.468 3.372 6.953l.5 3.188c1.493 5.959 7.715 9.512 12.5 12.813l3.109 1.453c3.326 1.78 4.741 3.471 6.891 6.547l2.105 2.793c7.846 12.792 6.874 26.658 6.857 41.166-.391 11.335-.391 11.335 2.546 22.015 2.177 4.995 1.903 10.007 1.864 15.374l.011 3.402-.02 11.097.002 7.729-.029 16.182-.018 18.679-.011 18.012-.003 7.647-.028 10.685.008 3.188c-.043 5.935-.59 10.646-3.282 16.03-.132 1.586-.205 3.178-.25 4.769l-.092 3.004-.088 3.254-.223 6.775-.322 10.719-.331 10.319-.076 3.248-.111 3.013-.078 2.653c-.517 2.701-1.448 3.423-3.43 5.245l-.812 3.25c-1.431 4.52-3.658 7.595-7.187 10.75h-2l-.625 2.25c-1.822 3.645-3.881 4.679-7.375 6.75l-1.855 1.254c-4.269 2.854-8.32 4.667-13.262 6.07-2.091.599-2.091.599-3.883 2.676-2.866.254-2.866.254-6.624.259l-2.097.011-7.029.002-5.065.015-13.985.015-15.075.027-26.203.038-38.189.057-62.356.1-59.893.084-3.686.006-40.221.067-3.622.006-14.383.026-38.094.058-88.48.23-3.279.014-42.919.265-12.373.08-14.336.113-5.233.032-7.147.066-2.074-.006c-4.84.091-8.251 1.521-12.639 3.434-3.253.377-3.253.377-6.667.38l-3.966.026-4.322-.018-4.619.016-12.67.003c-4.558-.005-9.115.008-13.673.018l-26.777.013c-7.254-.004-14.508-.003-21.761.003l-3.128.002-6.291.005c-19.665.014-39.33.008-58.995-.003-17.994-.01-35.989.003-53.983.027l-55.424.027c-10.373-.003-20.746-.001-31.119.016a7272.77 7272.77 0 0 1-26.488-.002 2558.84 2558.84 0 0 0-13.515.005c-4.124.014-8.248.009-12.372-.01-1.492-.004-2.984-.001-4.475.01-13.394.087-13.394.087-19.754-4.517-3.131-.573-3.131-.573-6.187-.562-4.462-.097-6.378-.626-9.812-3.437-2.008-.735-2.008-.735-4.125-1.25-4.796-1.502-8.38-3.951-12.391-6.934-2.346-1.715-4.747-3.193-7.234-4.691-4.074-2.692-6.343-5.682-8.844-9.836-1.387-2.258-2.924-4.235-4.594-6.289-2.667-3.475-4.011-6.815-5.172-11.02-.633-2.264-.633-2.264-2.641-4.98-.302-3.229-.378-6.434-.461-9.676-.285-3.42-.285-3.42-2.541-5.936-2.639-4.477-2.555-7.833-2.501-12.931l-.018-2.905.013-9.676-.019-6.992v-17.225l-.009-20.632-.008-40.426.008-35.379-.001-2.369-.004-9.521.02-89.344-.002-79.394-.018-89.174.004-9.505.001-2.364-.011-35.357.013-40.201.001-20.521.016-18.773-.008-6.803.019-9.226-.028-2.686c.071-5.844 1.317-9.104 4.532-13.982.565-2.14.565-2.14.504-4.078l.057-2.078.002-2.094c.046-7.28.046-7.28 1.898-9.508L400 914l2-7 2-1 .707-3.113c1.281-4.877 4.416-7.673 7.98-11.074l1.818-1.826c3.889-3.805 7.707-6.42 12.494-8.986l2.375-2.187c3.223-2.225 5.499-2.29 9.344-2.344 2.478-.306 2.478-.306 4.462-2.467 3.614-2.566 5.8-2.504 10.202-2.498zM1236 1173l-1.371 1.531c-2.711 2.445-5.841 1.939-9.352 2.063L1223 1177l-2 3-3.133.734c-5.115 1.289-8.161 4.829-11.742 8.516l-2.047 1.988c-3.83 3.868-5.567 6.186-6.078 11.762l-3 2c-.689 2.319-.689 2.319-1 4.938-.676 4.784-.676 4.784-2.515 6.367-2.104 2.402-1.866 4.076-1.873 7.237l-.029 3.438.018 3.712-.009 3.807.016 7.971-.011 10.226.003 9.746-.018 3.718.029 3.428.007 3.028.381 2.384c3.098 2.065 3.747 2.25 7.251 2.254l2.626.017 2.872-.012 3.031.011 9.94-.004 6.893.006 14.456-.011 18.553.007h14.237l6.842.005 9.553-.014 2.872.012 2.626-.017 2.282-.002c2.29-.144 2.29-.144 4.969-2.252.466-2.336.466-2.336.404-5.089l.038-3.217-.009-3.491.016-3.58-.003-7.515.052-11.482-.002-7.297.034-3.466c-.055-6.351-.436-9.953-4.53-14.862-.504-2.703-.504-2.703-.562-5.25-.003-2.522-.003-2.522-.437-4.75l-3-2-.937-3.5c-.658-3.569-.658-3.569-3.125-4.75L1285 1194l-1-3c-2.375-2.708-2.375-2.708-5-5h-2l-.562-1.875c-2.131-3.151-4.862-3.167-8.437-4.125l-2-3a79.25 79.25 0 0 0-8.125-1.187l-2.285-.248-5.59-.564-1-3-4.812-.062-2.707-.035c-2.615-.012-2.615-.012-5.48 1.098zm-9 198l-2.453 1.371c-2.966 1.897-4.978 4.049-7.297 6.691l-2.359 2.66c-3.369 4.058-3.082 7.528-3.129 12.609l-.024 2.511-.032 5.268-.105 8.039-.025 5.119-.053 2.422c.02 5.233.986 7.266 4.479 11.309.518 2.827.518 2.827.531 5.895l.016 3.396-.047 3.521.047 3.486c-.033 7.163-1.089 11.486-4.547 17.701.395 2.791.395 2.791 2 5a92.8 92.8 0 0 0 5.222.145l3.378.019 3.677.003 3.748.01 7.866.007 8.087.021 11.612.025 3.671.022 3.387-.009 2.992.004c2.549-.017 2.549-.017 4.36-2.247.399-4.239.329-8.493.316-12.749l.046-6.333.002-4.035.009-3.707c-.402-3.431-1.156-4.627-3.372-7.176-.375-2.5-.375-2.5 0-5l1.438-1.812c1.892-2.649 1.961-4.785 2.059-7.992.504-2.195.504-2.195 2.508-4.82 2.714-4.589 2.587-8.271 2.496-13.5l.047-2.707c.046-5.188.046-5.188-2.477-9.543L1273 1385c-.914-1.93-.914-1.93-1.625-3.875-2.184-4.729-5.624-6.466-10.133-8.801C1259 1371 1259 1371 1257 1368c-2.646-.467-2.646-.467-5.742-.398l-3.48-.012-3.652.035-3.629-.035-3.488.012-3.199.01c-3.171.438-4.437 1.306-6.809 3.388zM788.199 862.482l2.461-.021 8.028.008 5.593-.012 11.711.021 15-.014 11.545.001 5.531-.01 7.733.028 2.302-.025c4.981.08 7.283 1.193 10.897 4.542 2.778.651 2.778.651 5.625.688 3.121.15 5.392.318 8.375 1.313l1 2c3.074.317 6.126.38 9.215.461L896 872c1.137 2.004 1.137 2.004 2 4 2.011.292 4.028.574 6.055.723 2.587.369 3.877 1.726 5.945 3.277 1.944.343 1.944.343 4.063.5 4.191.532 4.341.677 6.938 3.5l3.625 1 3.375 1 1 3 3.313.313c3.927.732 4.148 1.042 6.688 3.688l5.034 1.386c3.31 1.034 6.337 2.646 9.404 4.239l4.215 2.145L962 903l8.5 4.313 1.92.985c4.428 2.238 8.911 4.024 13.58 5.703v2l3.688.813c3.558.879 6.213 2.207 9.313 4.188l2.188.5c1.813.5 1.813.5 3.813 3.5l7 1a33.97 33.97 0 0 1 3 3l6 2 2 2 3.438.938c3.598 1.073 4.102 1.602 6.563 4.063 2.31.744 4.643 1.422 7 2v2l3.313.313c3.935.734 4.133 1.053 6.688 3.688 1.794.884 1.794.884 3.75 1.5 2.689.943 5.324 1.925 7.938 3.063a137.19 137.19 0 0 0 6.125 2.5C1070 954 1070 954 1072 956l3.438.438c3.563.563 3.563.563 4.984 2.07 2.127 2.011 3.505 1.854 6.391 1.93 3.699.244 4.886.336 7.938 2.625 4.604 2.745 8.564 2.056 13.813 1.688 3.438.25 3.438.25 5.806 2.235 5.002 3.48 11.332 2.563 17.166 2.511l3.974.004 8.304-.034 10.618-.013 10.167-.02 3.842.009 3.58-.038 3.141-.016c3.258-.445 5.116-1.597 7.839-3.388 2.448-.388 2.448-.388 4.977-.398l2.781-.012 2.867.035 2.891-.035 2.773.012 2.522.01c2.663.472 3.425 1.41 5.189 3.388 2.141.464 2.141.464 4.438.5 3.858.311 5.6.932 8.563 3.5l3.563 1.5c4.551 1.986 4.551 1.986 6.438 4.5.388 2.496.388 2.496.398 5.438l.012 3.211-.035 3.352.035 3.352-.012 3.211-.01 2.941c-.454 2.92-1.218 3.601-3.388 5.496l-.875 2.813c-1.943 5.506-6.074 9.136-10.125 13.188-2.33 2.73-3.861 4.583-5 8h-2l-.702 2.186c-1.545 3.35-3.42 5.261-6.059 7.833l-1.421 1.401-4.505 4.392-5.887 5.77-2.826 2.776c-2.923 2.97-5.635 6.061-8.271 9.285L1178 1065h-2l-.687 1.688c-1.688 2.974-3.779 5.033-6.312 7.313h-2l-.625 1.688c-1.547 2.602-3.45 4.163-5.801 6.035-3.525 2.86-6.501 6.168-9.387 9.652-2.012 2.376-4.054 4.426-6.453 6.406-4.13 3.567-7.943 7.397-11.762 11.289l-1.932 1.963-7.984 8.157-5.897 6.005-1.772 1.844c-3.795 3.818-7.606 6.437-12.412 8.869-2.848 1.574-4.793 3.701-6.976 6.092l-6.5 6.063-1.684 1.564c-7.749 7.156-7.749 7.156-12.332 9.854-2.754 1.684-4.891 3.615-7.234 5.832-3.832 3.52-7.7 6.431-12.082 9.215-3.009 2.044-5.66 4.412-8.344 6.859-2.652 2.345-4.978 4.28-8.297 5.586-2.785 1.132-4.656 2.551-6.965 4.465-3.391 2.724-6.671 4.617-10.562 6.563-1.829 1.506-3.583 3.081-5.348 4.66-2.054 1.666-4.205 2.361-6.652 3.34a108.77 108.77 0 0 0-3.375 3c-3.316 2.991-6.278 3.913-10.625 5-1.625 1.458-1.625 1.458-3 3l-2.281.91c-2.759 1.106-5.08 2.449-7.594 4.027-6.466 3.935-15.295 9.063-23.125 9.063l-1 3c-3.566 1.549-7.447.955-11.25.813-5.499-.127-9.216.459-13.914 3.352-3.495 1.591-7.256.96-10.836-.164l-1.707-1.562c-4.098-2.569-8.961-1.509-13.65-1.232-5.386.183-7.542-.451-11.643-4.205-2.64-.886-2.64-.886-5.312-1.25l-2.676-.453L886 1229l-1-3c-1.919-.512-3.843-1.017-5.797-1.375-2.749-.78-4.793-2.095-7.203-3.625l-2.676-1.535-2.637-1.527-2.676-1.535L862 1215v-2l-3-.062c-4.514-.61-6.822-3.191-10.023-6.238-2.688-2.311-5.732-3.317-8.977-4.699-1.607-1.482-3.058-3.058-4.539-4.664-1.526-1.582-1.526-1.582-4.398-2.273-3.215-1.115-4.121-1.954-6.375-4.375-3.164-3.38-6.339-5.264-10.422-7.375-3.873-2.243-6.987-5.296-10.266-8.312l-3.312-2.75c-2.687-2.25-2.687-2.25-4.113-3.74-1.706-1.636-3.428-2.704-5.455-3.917-6.798-4.469-12.322-10.343-18.038-16.077l-3.685-3.669-7.672-7.676-9.794-9.756-7.59-7.578-3.611-3.592c-6.049-5.995-11.548-11.61-15.579-19.212-1.79-3.162-4.091-5.215-6.776-7.658-3.719-3.508-6.331-6.609-8.289-11.348-1.473-2.75-3.451-4.758-5.586-7.027-3.369-3.583-5.587-6.726-7.539-11.203-1.087-2.033-2.321-3.252-4.023-4.797-2.987-2.741-3.887-5.252-5.086-9.059-.989-2.254-2.146-3.378-3.977-5.004-2.709-2.434-2.875-2.94-3.75-6.812L680 1031l-3-1c-.71-1.622-1.409-3.249-2.051-4.898-1.471-3.256-3.507-6.084-5.527-9.02-1.116-1.634-2.159-3.319-3.172-5.02-1.21-2.181-1.21-2.181-3.25-4.062l-2-7-2-2-.937-2.937c-.791-3.029-.791-3.029-2.625-4.562C654 989 654 989 653.5 985.937L653 983l-3-2-2-7-3-4-.5-2.625c-.287-2.739-.287-2.739-3.5-4.375-.406-2.898-.406-2.898-.5-6.375-.13-4.782-.55-6.92-3.5-10.625.313-3.75.313-3.75 1-7l3-1-.437-3c-.038-4.641 2.544-6.986 5.613-10.203L648 923l1.605-1.734C651 920 651 920 653 920v-2c1.574-1.184 1.574-1.184 3.688-2.437l2.207-1.328L661 913c3.744-2.189 3.744-2.189 7-5l3.438-.937c3.549-1.059 4.174-1.57 6.563-4.062l6-2a113.16 113.16 0 0 0 5-3c4.257-2.6 8.233-4.448 13-6l2-2c2.323-.4 4.657-.74 7-1l1-3c1.777-.879 1.777-.879 3.938-1.562 2.791-.897 3.94-1.315 6.063-3.437 2.273-.341 4.514-.441 6.809-.559 2.667-.537 3.311-1.551 5.191-3.441 2.305-.625 2.305-.625 4.875-1 3.106-.533 4.971-.906 7.688-2.562 3.127-1.844 5.769-1.885 9.352-2.031 2.18-.206 2.18-.206 3.43-1.91 3.196-2.887 8.097-1.927 12.211-1.992 3.506-.186 3.506-.186 5.648-2.503 3.643-2.606 6.682-2.564 10.996-2.518zM1504 872l13.342-.22 4.533-.082 6.539-.089 3.967-.063c4.197.527 6.278 1.938 9.619 4.454 2.07.495 2.07.495 4 .438 3.771.307 5.657 1.539 8.445 4.184 1.706 1.513 3.454 2.558 5.43 3.691 7.57 4.652 12.563 10.753 16.801 18.488 1.212 2.221 1.212 2.221 2.93 3.773 2.251 2.302 2.524 5.378 3.395 8.426l1.563 1.418C1586 918 1586 918 1586.188 920.27l-.187 2.543c-.152 4.518.51 7.303 3 11.188l1 1a250.38 250.38 0 0 1 .134 9.005l.007 2.913.006 9.794.011 7.041.016 17.405.02 20.835.04 50.369.015 23.818.04 81.495.001 5.119.001 2.564.004 12.862.001 2.578.064 82.771.057 87.462.001 9.598v2.387l.038 38.07.016 38.254.017 20.733.001 18.968.014 6.874-.01 9.322.031 2.715c-.065 5.887-1.325 9.117-4.526 14.046-.334 2.618-.334 2.618 0 5.063.214 4.886-.958 7.027-4 10.938a252.44 252.44 0 0 0-3 7c-2.242 5.154-5.192 8.779-9 12.813l-1.617 1.771c-3.993 4.286-3.993 4.286-7.383 5.416l-1 3c-4.856 3.556-10.409 5.673-16.152 7.324-2.059.606-2.059.606-3.848 2.676a102.86 102.86 0 0 1-8.07.195l-2.413-.009-7.642-.062-5.176-.027L1504 1568l-.777-1.973L1502 1564c-1.897-.233-3.797-.455-5.703-.598-5.615-.984-10.38-4.41-14.297-8.402l-2.687-1.562L1477 1552v-2l-4-1-.25-1.875c-.53-2.287-.53-2.287-2.625-3.062-2.882-1.441-3.542-3.281-5.125-6.062l-1.535-2.43c-4.625-7.404-4.625-7.404-5.652-11.445-.532-3.092-.532-3.092-2.34-4.715-2.343-3.834-1.883-7.693-1.85-12.1l-.013-3.027.01-10.122-.014-7.298-.003-15.91-.004-23.658-.006-42.25.006-36.977-.001-2.475-.003-9.946.015-93.359-.001-82.978-.013-93.177.003-9.93v-2.47l-.008-36.953.01-42.015-.002-23.525.015-17.544-.006-7.114.014-9.639-.021-2.817c.046-5.3.403-10.128 4.399-14.124.531-2.28.963-4.572 1.402-6.871C1460 911 1460 911 1462 909l1.313-3.187c2.697-6.467 6.609-11.079 12.039-15.453 1.659-1.368 3.141-2.828 4.648-4.359 4.157-3.779 7.698-5.938 13-8l2.125-1.187c2.374-1.029 4.316-.955 6.875-.812l2-4z"/>
    <path d="M786.756 667.612l2.318-.016 7.555.006 5.263-.009 11.018.016 14.12-.011h10.863l5.207-.007 7.274.021 2.171-.018c4.167.053 6.359.615 9.456 3.407 2.26.45 2.26.45 4.66.406l2.654.066 5.508.055 2.65.066 2.414.021c2.617.476 3.352 1.458 5.113 3.385 4.262 1.421 8.499 1.332 12.969 1.523 3.373.53 3.806 1.115 6.031 3.477 2.405.466 2.405.466 5 .5 4.052.145 5.224.657 8 3.5 2.173.501 2.173.501 4.5.563 3.504.193 4.429.39 7.5 2.438v2l2.301.113 3.012.199 2.988.176c3.035.575 3.703 1.28 5.699 3.512l7 2 4 3 7 2 2 2a70.97 70.97 0 0 0 4.5 1.5c2.963.885 4.278 1.278 6.5 3.5l3.5.438 3.5.563 2 3c2.322.705 4.656 1.372 7 2l2 2 3.5.938C999 717 999 717 1001 720c2.322.705 4.656 1.372 7 2l2 2 3.5.938C1017 726 1017 726 1019 729c2.322.705 4.656 1.372 7 2l2 2 3.438.938c3.549 1.059 4.174 1.57 6.563 4.063l6 2 2 2 3.313.938c3.463.998 5.647 2.21 8.688 4.063l5.438 2.5c10.984 4.921 10.984 4.921 12.563 6.5l3.375.375c3.625.625 3.625.625 5.035 2.137 2.659 2.489 5.819 1.907 9.313 1.984L1096 761l.941 2 1.059 2c2.749.594 2.749.594 5.875.563 5.746.12 5.746.12 7.902 1.927 2.992 2.034 5.141 1.957 8.743 2.058l3.995.124 4.298.079 4.409.103c10.367.212 20.726.157 31.091-.103l3.986-.079 3.69-.124 3.236-.099c3.109-.502 4.394-1.464 6.776-3.448 3.068-.659 6.107-1.005 9.223-1.375 3.034-.683 3.768-1.382 5.777-3.625l7-2 4-3 2.625-.5c2.739-.287 2.739-.287 4.375-3.5 2.023-.406 2.023-.406 4.375-.5 3.512-.114 3.512-.114 6.367-2 3.007-1.997 5.077-1.887 8.668-1.898l3.748-.012 3.904.035 3.916-.035 3.744.012 3.43.01c3.199.436 3.816 1.024 5.847 3.388l3.141.68c5.427 1.389 8.814 5.55 12.609 9.445l2.285 2.227c4.625 4.666 7.02 8.39 8.965 14.648l2 2a102.86 102.86 0 0 1 .195 8.07l-.009 2.413-.062 7.642-.027 5.176L1288 816l-1.98.809L1284 818l-.312 3.063c-.84 4.811-2.769 7-5.898 10.629-1.908 2.292-1.908 2.292-3.168 5.211-1.89 3.612-4.303 6.272-7.184 9.098l-1.598 1.588a52.76 52.76 0 0 1-12.684 9.131c-2.298 1.245-2.298 1.245-4.312 3.438L1247 862h-2l-1 3c-1.672.844-1.672.844-3.75 1.5-3.399 1.165-6.212 2.553-9.25 4.5a58.75 58.75 0 0 1-13 6l-2 2c-1.973.223-3.948.442-5.93.559-2.18.298-2.18.298-3.875 1.934-3.103 2.131-5.721 2.023-9.445 2.195l-3.828.199L1190 884v2c-4.239 2.045-7.753 2.263-12.433 2.291l-2.214.02-7.22.025-5.04.02-10.556.014a1751.67 1751.67 0 0 0-13.493.062l-10.408.025-4.973.027-6.97.002-3.999.009c-4.525-.606-6.838-2.107-10.693-4.494-3.36-.575-3.36-.575-6.687-.562-4.732-.095-6.629-.588-10.312-3.437-3.068-.659-6.107-1.005-9.223-1.375-3.034-.683-3.749-1.408-5.777-3.625l-7-1-1.937-1.5c-2.303-1.675-3.349-1.758-6.125-2-4.191-.532-4.341-.677-6.937-3.5l-3.625-1-3.375-1-1-3-3.312-.312c-3.927-.732-4.148-1.042-6.687-3.687l-3.625-1-3.375-1-1-3-3.312-.312c-3.927-.732-4.148-1.042-6.687-3.687l-3.625-1-3.375-1-1-3-3.312-.312c-3.927-.732-4.148-1.042-6.687-3.687l-7-2-2-2-3.5-1.5C978 833 978 833 976 831l-3.5-1c-3.5-1-3.5-1-5.5-3l-5.664-2.086c-2.495-.976-4.829-2.127-7.211-3.352-4.269-2.194-8.596-3.996-13.094-5.668C939 815 939 815 937 813l-3.5-.437L930 812l-2-3c-2.322-.705-4.656-1.372-7-2l-2-2c-1.649-.557-3.319-1.05-5-1.5-4.778-1.278-4.778-1.278-7-3.5-2.031-.569-2.031-.569-4.312-.937-2.853-.575-4.622-1.022-7.125-2.562-3.341-1.955-6.56-2.375-10.355-2.973C883 793 883 793 881 791c-3.184-.312-6.346-.379-9.543-.461C868 790 868 790 864.793 787.961c-4.797-2.986-9.834-2.241-15.293-1.961l-6.031.25-2.674.141c-3.204-.448-5.206-1.805-7.93-3.473-3.178-1.563-6.462-1.488-9.923-1.448l-2.267-.012c-1.572-.003-3.145.005-4.717.021-2.386.021-4.769 0-7.155-.025-9.922-.074-9.922-.074-18.947 3.674-3.976 1.871-8.631 1.106-12.918.873-7.553-.408-11.534-.029-17.937 4-3.387.504-3.387.504-6.687.563-4.711.094-6.659.56-10.312 3.438-2.775.653-5.519 1.002-8.344 1.375-2.916.686-4.329 1.802-6.656 3.625l-7 1-4 3c-2.304.841-4.623 1.562-6.977 2.254-2.212.655-2.212.655-4.023 2.746l-7 2-2 2-2.937.938c-3.031.781-3.031.781-4.5 2.625-2.487 2.288-5.301 2.13-8.562 2.438v2l-3.562 1.625a31.82 31.82 0 0 0-8 5.5c-3.228 2.948-6.184 3.812-10.437 4.875-1.625 1.458-1.625 1.458-3 3a124.97 124.97 0 0 1-5 2l-3 2c-2.324.394-4.658.735-7 1l-1 3-6.25.188-3.516.105c-3.537-.32-4.593-1.069-7.234-3.293l-3.187-.125c-5.875-1.348-9.183-5.197-12.812-9.875-1.058-2.379-1.484-4.422-2-7l-1.562-1.5c-2.278-2.377-1.99-5.313-2.437-8.5l-1.506-1.797c-2.076-3.063-1.882-5.339-1.892-9.016l-.009-1.972.016-4.115-.019-6.28.012-4.008.01-3.668c.419-3.391 1.179-4.629 3.388-7.145.424-2.117.424-2.117.438-4.312.324-3.839 1.209-6.396 3.34-9.68 1.555-2.553 2.724-5.23 3.973-7.945 2.89-5.853 6.436-9.75 11.25-14.062a366.85 366.85 0 0 0 8.086-8.227l3.289-3.398 1.633-1.734c3.767-3.857 6.982-5.691 11.992-7.641 1.857-1.361 1.857-1.361 3.313-2.875 3.469-3.17 7.191-5.023 11.453-6.949 2.218-1.167 3.499-2.406 5.234-4.176l6-2 1.438-1.562c2.487-2.288 5.301-2.13 8.563-2.437l1-3 3.313-.312c3.59-.304 3.59-.304 5.137-2.168 2.42-2.371 5.144-2.374 8.395-2.895 2.231-.456 2.231-.456 3.629-2.125 2.047-2.011 3.654-2.094 6.465-2.5 3.788-.546 3.788-.546 6.988-2.52 2.782-1.985 4.941-1.984 8.324-2.168l3.266-.199L729 680l1-3 3.395-.113 4.418-.199 2.236-.068c4.181-.116 4.181-.116 7.713-2.1L749 673c2.949-.966 5.72-1.145 8.809-1.211l2.764-.086 5.719-.133 2.768-.094 2.51-.06c2.527-.256 2.527-.256 4.599-1.918 3.573-1.89 6.648-1.92 10.589-1.886zm695.928 1066.15l2.582-.024 5.404-.032 8.262-.105 5.252-.025 2.494-.053c5.78.022 5.78.022 8.676 2.462L1517 1738l3.16.688c5.707 1.39 9.35 6.224 13.277 10.313l2.506 2.523c6.057 6.182 6.057 6.182 6.057 8.477h5l.823-1.8c1.881-3.517 4.639-6.071 7.427-8.887l1.699-1.799c3.624-3.671 5.79-4.944 11.051-5.514l2-3 7-2 1.454-1.537c2.017-1.909 3.102-1.847 5.846-1.867l2.62-.038 2.822.009 2.911-.016 6.098.003 9.316-.052 5.926.002 2.81-.034c5.428.058 8.185.547 12.198 4.53l6 2c10.552 4.028 14.192 10.144 19 20l2 2c.588 3.596.944 7.127 1.176 10.762l.199 2.863.148 2.664c.314 2.788.314 2.788 1.985 5.109 2.193 5.297 1.885 10.263 1.832 15.941l.001 3.756-.038 10.158-.024 10.63-.064 20.112-.065 22.904-.151 47.1c-3.113.828-5.814 1.122-9.044 1.114h-3.033l-3.252-.016-3.346-.004-10.576-.031-7.172-.014L1607 1915c-1.747-3.027-2.245-5.179-2.22-8.661l.005-2.825.036-3.078.014-3.258.046-7.004.06-11.082.176-31.509.09-19.271.049-7.348.053-10.27.042-3.072c-.007-5.134-.171-8.378-3.351-12.622l-1.125-3.812c-2.183-6.118-7.623-10.6-13.355-13.398-6.062-1.899-12.747-1.387-18.52 1.211l-2 2-3.375 1.313c-4.58 2.132-6.692 4.173-8.461 8.941a140.28 140.28 0 0 0-1.453 4.758C1553 1798 1553 1798 1551 1800c-.314 2.106-.314 2.106-.278 4.568l-.034 2.915-.007 3.208-.03 3.37-.065 11.071-.059 7.659-.117 18.126-.138 20.633L1550 1914c-3.221.86-6.035 1.127-9.379 1.129l-3.256.01-3.498-.006-3.601.003a3890.69 3890.69 0 0 1-7.53-.005c-3.854-.005-7.707 0-11.561.006l-7.309-.004-3.51.006-3.237-.01-2.857-.002C1492 1915 1492 1915 1490 1914l-1-123-3-1-1.25-3.375c-.877-2.311-1.315-3.365-3.461-4.648L1476 1780l-1-3-7.687-.062-2.186-.025c-5.646-.057-5.646-.057-11.127 1.088l-2 3-3.437 1.25c-4.704 2.311-4.876 3.957-6.562 8.75l-2 1c-.32 2.684-.38 5.342-.461 8.043-.539 2.957-.539 2.957-2.544 5.503-2.704 4.683-2.529 8.372-2.449 13.682l-.002 3.077.065 10.031.017 6.969.099 18.317.079 18.702L1435 1913c-3.22 1.712-5.343 2.249-9.012 2.243l-3.013.009-3.233-.022-3.332-.001-6.965-.023-10.692-.02-6.762-.018-3.245-.003-2.994-.019-2.642-.012C1381 1915 1381 1915 1379 1914v-175l53-1c3 3 3 3 3.293 6.574l-.105 4.113-.041 2.127L1435 1756h5l.625-1.687c2.316-3.895 5.63-6.658 9.875-8.25 2.632-1.118 3.466-2.025 5.313-4.125 3.456-3.698 6.261-3.54 11.188-3.937 2.285-1.4 2.285-1.4 4-3 3.894-1.298 7.622-1.202 11.684-1.238zm-585.476-65.882l2.954.007h3.383l3.583.016 3.273.003 12.16.032L950 1668l1 96c3.389 1.695 7.247 1.166 10.976 1.177l2.819.02 9.26.041 3.189.012 16.703.045 17.278.085 13.264.038 6.371.035 8.906.016 2.667.039c3.642-.031 5.932-.14 9.119-1.99 2.119-3.684 1.958-7.166 1.872-11.295l-.008-2.682-.094-8.769-.032-6.089-.131-16.026-.192-25.675-.09-8.984-.04-5.481-.041-2.538c-.008-1.994.088-3.988.204-5.979 2.513-2.513 3.367-2.265 6.845-2.306l3.055-.048 3.311-.016 3.393-.027 7.117-.027 10.896-.112 6.906-.021 3.299-.059 3.074.018 2.7-.015c3.609.923 4.468 2.452 6.404 5.615.579 3.251.523 6.455.481 9.751l.01 2.995-.037 9.945.002 7.125-.042 17.346-.039 20.185-.073 35.997-.082 34.965-.003 2.177-.015 10.814-.201 89.7c-3.095.822-5.802 1.131-9.012 1.145l-3.013.019-3.233.003-3.332.01-6.965.007-10.692.039-6.762.006-3.245.022-2.994-.009-2.642.004C1056 1915 1056 1915 1054 1913c-.183-2.907-.241-5.718-.211-8.625l.004-2.705.047-8.885.016-6.158.065-16.237.096-25.982.045-9.092.02-5.561.02-2.565c.006-3.324-.043-6.013-1.102-9.189-4.635-1.169-9.112-1.148-13.858-1.145l-2.672-.01-8.724-.013-6.071-.01-12.712-.007a5209 5209 0 0 1-16.299-.031l-12.531-.013-6.01-.013-8.395-.001-2.511-.017c-5.492-.103-5.492-.103-10.217 2.26-2.554 4.297-2.27 8.887-2.227 13.738l-.001 2.633.033 8.587.009 5.965.049 15.679.04 16.007L951 1913c-3.521 1.589-6.27 2.252-10.126 2.259l-3.013.019-3.217-.012-3.327.006a1654.38 1654.38 0 0 1-6.947-.011c-3.555-.011-7.11 0-10.665.013l-6.748-.008-3.235.012-2.984-.019-2.632-.005C896 1915 896 1915 894 1913c-.25-1.812-.25-1.812-.249-4.054l-.014-2.586.016-2.857-.007-3.022.012-10.09-.006-7.208.01-17.583.01-20.457.023-36.487.021-35.442v-2.205-2.201l.014-40.299.005-14.275.017-19.194.004-7.067.012-9.602-.005-2.864c.028-7.446.028-7.446 3.347-7.626zm-739.062-.009l3.327-.01 3.62.006 3.688-.003 7.737.005 11.891-.006 7.496.004 3.62-.006 3.327.01 2.945.002C208 1668 208 1668 209 1669l.205 9.201.03 2.927.081 9.626.063 6.655.153 17.553.161 17.896L210 1768l7 1 1.645-2.957 2.168-3.855 1.08-1.947c1.779-3.149 3.496-5.753 6.107-8.24.856-1.433 1.667-2.894 2.438-4.375 1.908-3.542 4.048-6.482 6.563-9.625 1.303-2.28 2.541-4.585 3.754-6.914 1.245-2.087 1.245-2.087 2.71-3.548 1.965-1.97 3.156-4.126 4.535-6.539 1.772-3.101 3.452-5.517 6-8l1.375-2.812C257 1707 257 1707 259.562 1704.062c2.645-2.917 2.645-2.917 3.438-6.625 1.18-4.056 2.773-5.776 6-8.437h2l.187-3.039c.972-6.43 4.881-10.849 9.669-15.029 9.711-6.676 24.492-4.374 35.773-3.894l11.304.278L350 1668c.174 5.775.174 5.775-1.391 7.801l-1.859 1.512c-3.589 3.243-5.035 6.253-6.793 10.695-1.356 2.822-3.485 4.123-5.957 5.992-2.415 3.348-4.425 6.929-6.375 10.563-1.524 2.287-3.013 3.816-5 5.688-3.292 3.175-5.166 6.378-7.238 10.418-2.055 3.456-4.733 6.215-7.52 9.094-2.005 2.225-2.005 2.225-3.328 5.199-1.647 3.253-3.506 5.371-6.039 7.977-3.723 3.962-3.723 3.962-6.125 8.75-1.606 3.87-3.665 5.793-6.668 8.625-3.202 3.165-5.272 6.782-7.207 10.813-1.52 2.914-2.991 4.77-5.5 6.875h-2l-.25 5.75-.141 3.234c.484 3.737 1.666 4.533 4.391 7.016l.906 2.379c1.724 4.132 4.987 6.949 8.105 10.072 3.247 3.374 4.654 6.11 5.988 10.549 1.473 2.05 1.473 2.05 3.25 3.813 2.552 2.768 4.72 5.517 6.75 8.688a60.87 60.87 0 0 0 6.5 8.438c2.611 2.874 4.583 5.749 6.5 9.125 2.364 4.145 5.011 7.062 8.48 10.297 2.307 2.491 3.211 5.532 4.52 8.641 1.688 2.095 3.486 4.053 5.309 6.031 1.529 1.78 2.607 3.402 3.691 5.469 2.739 5.18 6.882 9.382 11 13.5l.844 2.305c1.393 3.247 3.239 5.254 5.656 7.82 6.454 6.894 6.454 6.894 6.625 10.563L359 1914c-3.501 1.064-6.781 1.167-10.43 1.228l-3.956.066-15.579.07c-3.934-.004-7.865.017-11.799.098-27.5.543-27.5.543-33.704-4.204-3.975-4.051-5.968-8.935-8.161-14.078-1.247-2.893-2.02-4.222-4.371-6.181-2.653-2.458-3.823-4.655-5.094-8.082-1.547-3.275-3.933-5.911-6.203-8.711a42.86 42.86 0 0 1-3.891-6.02c-1.585-3.154-1.585-3.154-3.75-5-2.155-2.286-3.154-4.241-4.5-7.062-1.457-3.048-2.834-5.707-5.062-8.25-2.43-2.794-4.265-5.581-6.18-8.73-1.887-3.065-3.895-6.044-5.902-9.031l-3.668-5.551c-1.65-2.586-1.65-2.586-3.75-4.562l-.875-2.25c-1.323-3.233-3.131-5.892-5.125-8.75l-4 1-.031 3.859-.308 35.935-.158 18.476-.156 17.818-.056 6.811-.086 9.511-.017 2.868-.03 2.609-.02 2.274C212 1912 212 1912 211 1914l-22.192.495-10.304.229-11.84.253-3.747.098-3.458.061-3.055.067C154 1915 154 1915 152 1913c-.25-1.812-.25-1.812-.249-4.054l-.014-2.586.016-2.857-.007-3.022.012-10.09-.006-7.208.01-17.583.01-20.457.023-36.487.021-35.442v-2.205-2.201l.014-40.299.005-14.275.017-19.194.004-7.067.012-9.602-.005-2.864c.029-7.63.029-7.63 6.285-7.635z"/>
    <path d="M756.119 1662.482l2.077-.021 6.745.008 4.714-.012 9.857.021 12.616-.014 9.726.001 4.652-.01 6.504.028 3.734.01c3.844.6 5.407 1.943 8.256 4.508 2.55.612 2.55.612 5.125.625 3.673.145 4.688.25 7.875 2.375v2l5 2 1 48-4 1-1-3-2.082-.113-2.73-.199-2.707-.176c-2.849-.588-3.584-1.398-5.48-3.512-4.691-1.564-9.432-.852-14.336-.645-3.664-.355-3.664-.355-5.747-2.338-4.29-2.967-8.152-2.647-13.257-2.654l-3.029-.033-6.332-.016-9.664-.124-6.162-.014-2.908-.071c-5.121.028-5.121.028-9.466 2.448-1.492 1.753-2.781 3.563-4.099 5.448l-4 3c-1.267 3.802-1.262 7.411-1.312 11.375l-.088 2.289c-.044 3.915.099 5.857 2.236 9.25 2.518 2.427 5.238 4.175 8.164 6.086l2.438 2.625c3.045 2.822 5.611 3.311 9.563 4.375l1 3 3.313.313c3.927.732 4.148 1.042 6.688 3.688l4.875 1.289c3.558 1.19 6.686 3.15 9.941 4.992 4.259 2.3 8.638 4.298 13.057 6.27a45.98 45.98 0 0 1 9.127 5.448l2.445.953c4.832 1.98 8.576 5.73 12.555 9.047l2.168 1.719 1.895 1.531 1.66 1.328c1.274 1.42 1.274 1.42 1.77 3.529L839 1802l3 1c1.381 1.967 2.715 3.969 4 6l2 2 .438 3 .563 3 3 2a76.16 76.16 0 0 1 .5 7.875c.062 4.919.124 8.3 3.5 12.125.734 2.987 1.212 5.01 1 8-.983 1.573-1.973 3.144-3.02 4.676-1.685 3.995-1.522 8.352-1.564 12.639-.095 4.281-.568 6.494-3.417 9.686l-2.139 5.873c-2.88 7.118-7.799 12.587-13.173 17.939l-1.896 1.982c-4.345 4.363-7.947 6.32-13.791 8.205l-2 2-3.312.438c-3.623.297-3.623.297-6.035 2.066-3.899 2.199-7.515 1.958-11.91 2.09-2.769.099-2.769.099-3.995 1.907-2.676 2.295-4.976 1.88-8.45 1.887l-2.051.016a643.23 643.23 0 0 1-6.711-.006l-4.667.009a1730.17 1730.17 0 0 1-9.782-.016c-4.178-.017-8.355-.007-12.532.011h-9.638a791.73 791.73 0 0 0-4.62.007 556.95 556.95 0 0 1-6.463-.021l-3.714-.007c-3.399-.415-4.553-1.238-7.118-3.381-3.568-.166-7.026.068-10.59.285-4.095-.342-5.414-1.587-8.41-4.285l-3.562-.937c-4.248-1.313-5.184-2.252-7.437-6.062-.551-3.365-.49-6.675-.426-10.078l.01-2.931.059-6.112.073-9.395.045-5.937.022-2.853.039-2.62.03-2.316C685 1860 685 1860 686 1859a136.79 136.79 0 0 1 7.438-.25l2.104-.062c2.018-.016 2.018-.016 5.459.313l2 3c2.977.695 2.977.695 6.375 1 4.687.508 6.922 1.221 10.625 4 2.873.465 2.873.465 5.938.5 5.523.168 5.523.168 8.422 1.953 3.517 2.06 6.975 2.391 10.953 2.797l2.186.273c5.061.563 9.466.204 14.502-.523l11.805-.523L777 1871l2-3 3.313-.875c4.454-1.359 5.918-2.379 8.688-6.125.713-3.682.653-7.261.563-11l.033-2.984c-.044-4.349-.138-7.222-2.338-11.035a30.6 30.6 0 0 0-6.945-4.668c-4.215-2.118-4.215-2.118-5.312-4.312l-3.5-.937L770 1825l-1-3-3.312-.312c-3.927-.732-4.148-1.042-6.687-3.687l-3.625-1-3.375-1-1-3-3.312-.312c-3.927-.732-4.148-1.042-6.687-3.687l-3.625-1-3.375-1-1-3-3.312-.312c-3.927-.732-4.148-1.042-6.687-3.687l-3.25-.75c-4.349-1.45-6.089-3.293-9.125-6.586-1.648-1.83-1.648-1.83-4.25-3.227-3.296-1.995-5.074-4.348-7.375-7.437v-2l-1.687-.625c-5.903-3.51-7.684-7.976-9.312-14.375l-1.625-2.375c-1.753-3.348-1.427-5.764-1.285-9.469-.143-3.431-1.709-5.775-4.09-8.156-.307-3.053-.278-6.121-.312-9.187l-.088-2.58c-.058-5.756.927-8.491 4.4-13.232.333-2.576.333-2.576 0-5.062-.208-4.64-.208-4.64 1.875-7.625L689 1705l.851-3.321c1.271-4.07 2.678-5.851 5.657-8.851l2.742-2.762 1.434-1.402 4.246-4.278c5.143-5.107 9.092-8.393 16.07-10.387l2-2 3.438-.437c3.493-.174 3.493-.174 4.953-2.07 2.748-2.548 6.129-1.913 9.723-1.988 3.049-.313 3.049-.313 5.622-2.503 3.816-2.339 5.944-2.507 10.384-2.518zm-199.952.048l2.091-.007 6.788.051 4.735.01 9.895.059 12.698.067 12.11.051 2.339.01 6.528.051 3.754.03C620 1663 620 1663 622 1664v2l2.738.367 3.574.508 3.551.492C635 1668 635 1668 638 1670v2l5 2 .537 18.262.187 6.216.253 8.921.098 2.819.061 2.608.067 2.301C644 1717 644 1717 642 1719c-6.178-.343-6.178-.343-8.91-2.525-2.568-1.812-4.036-1.856-7.152-1.881l-2.914-.066-3.023-.027-5.937-.094-2.652-.021c-2.41-.385-2.41-.385-4.274-1.888-2.501-1.753-3.704-1.863-6.721-1.838l-2.729.001-2.92.047-3.01.013-9.506.093-6.449.041L560 1711l-1 3-7 3c-1.751 1.582-1.751 1.582-3 3h-2c-.895 3.869-1.194 7.531-1.25 11.5l-.078 3.344c.654 6.291 4.879 10.185 9.219 14.445 2.81 2.279 5.64 2.782 9.109 3.711 2.165 1.688 4.137 3.511 6.141 5.387 2.136 1.853 4.182 2.747 6.859 3.613l2 2 3.438.938c3.549 1.059 4.174 1.57 6.563 4.063l6 2 2 2 2.875.938c3.018 1.026 4.62 2.184 7.125 4.063l6 2 2 2 2.625.75c3.739 1.385 6.199 3.23 9.297 5.684 2.001 1.508 4.023 2.714 6.203 3.941 6.084 3.705 9.313 9.64 12.875 15.625l1.57 2.473c3.695 6.155 5.101 10.899 5.129 18.094l.3 2.431 3 2c.586 2.772.857 5.185 1 8l.195 3.43c.227 7.159-.048 10.663-4.195 16.57-.412 3.371-.562 6.68-.629 10.074-.415 3.274-.961 3.856-3.371 5.926l-.812 3.25c-1.431 4.52-3.658 7.595-7.187 10.75h-2l-.691 2.238c-1.577 3.327-3.328 4.734-6.246 6.949l-2.652 2.043c-2.82 2.071-5.128 3.677-8.473 4.77-3.018.786-3.018.786-4.937 3l-3.437.938c-3.486.698-3.486.698-4.945 2.629-1.62 1.433-1.62 1.433-4.179 1.62l-5.75-.375c-2.73-.078-2.73-.078-4.429 1.675-3.13 2.092-5.409 1.894-9.155 1.901l-2.076.016a665.82 665.82 0 0 1-6.778-.006l-4.722.009a1768.84 1768.84 0 0 1-9.893-.016c-4.221-.017-8.442-.007-12.663.011h-9.752c-1.556-.002-3.112 0-4.668.007a569.33 569.33 0 0 1-6.534-.021l-3.752-.007c-3.551-.414-5.325-1.439-8.27-3.381-3.621-.427-7.176-.501-10.82-.594-3.497-.447-3.962-.899-6.18-3.406-2.245-.587-4.447-.876-6.746-1.18-3.444-1.253-4.375-2.643-6.254-5.82-.496-3.82-.325-7.584-.172-11.426l.084-3.342.337-10.545.199-7.158L486 1854c3-1 3-1 6.066.363l3.496 1.949 3.504 1.926C502 1860 502 1860 504 1862l2.875.938C510 1864 510 1864 511.812 1865.562c2.958 1.944 5.58 1.89 9.066 2.031 2.121.406 2.121.406 3.473 1.902 2.568 2.343 5.061 1.954 8.461 2.066 4.811.17 8.679.733 13.188 2.438 2.46.909 2.46.909 5 1l2.637-1.473c3.996-1.814 7.39-1.801 11.676-1.777 7.986-.217 11.976-2.05 17.688-7.75l2.313-1.527c3.681-2.511 5.387-4.288 6.5-8.676.366-5.283.219-9.178-2.672-13.715-2.267-2.514-4.651-4.79-7.141-7.082a100.33 100.33 0 0 1-2.625-3.5c-2.944-3.099-5.283-3.477-9.375-4.5-1.707-1.281-3.374-2.618-5-4-3.355-2.189-6.565-3.855-10.375-5.125L552 1815l-1-2-3.375-.437c-3.934-.61-4.09-.922-6.625-3.562l-7-2-1-2-3.25-.875c-3.951-1.185-5.625-2.521-8.75-5.125l-4.117-2.121c-5.363-2.942-9.377-6.781-13.633-11.129l-2.207-2.16c-6.082-6.126-9.969-12.55-13.043-20.59l-2-3c-.319-1.894-.319-1.894-.414-4.027l-.118-2.381-.093-2.529-.113-2.607c-.265-6.492-.411-12.959-.262-19.456l-.055-3.945c.044-13.558 4.711-25.561 14.285-35.395L501 1688l1.863-1.816c4.285-3.976 8.84-6.976 13.938-9.824 2.227-1.241 2.227-1.241 3.73-3.02 1.469-1.34 1.469-1.34 3.512-1.633L530 1672v-2c3.618-2.046 6.499-2.302 10.586-2.461 2.63-.416 2.63-.416 5.117-2.543 3.858-2.335 5.991-2.487 10.464-2.466zm670.219 71.293l3.338-.039 3.608-.022 3.711-.024 7.78-.032 11.89-.105 7.557-.025 3.59-.053c6.434.017 10.193.271 15.141 4.479 2.398.568 2.398.568 4.688.563 3.965.116 3.965.116 5.898 1.902L1295 1742l6 2 4 3 2.629.633c4.776 1.937 7.737 5.097 11.309 8.742l2.147 2.163c4.84 5.01 8.512 9.867 11.654 16.107 1.115 2.38 1.115 2.38 2.898 3.902 1.828 1.948 1.757 3.258 1.863 5.891.129 3.489.129 3.489 2 6.344 2.515 3.721 1.973 8.107 2.027 12.463-.011 4.033-.011 4.033 1.941 7.377L1345 1812c1.408 5.172 1.018 10.387.75 15.688l-.082 2.588-.121 2.486-.099 2.249c-.557 2.473-1.676 3.239-3.448 4.99-.348 3.527-.436 6.95-.439 10.488-.144 5.647-1.555 8.743-4.561 13.512v2.625c0 3.434-1.849 4.781-4 7.375l-.937 2.938c-1.468 4.231-3.935 7.999-8.062 10.063l-1.5 2.563-1.5 2.438h-2l-.25 1.875c-.75 2.125-.75 2.125-2.625 3.188L1314 1898l-3 3c-4.6 3.68-9.552 6.565-14.812 9.188l-2.11 1.059c-4.645 2.253-8.997 3.78-14.159 4.402-2.239.28-2.239.28-4.918 2.352-2.536.261-2.536.261-5.601.275l-3.479.029-3.76-.003-3.86.013-8.088.002a1231.89 1231.89 0 0 0-10.353.034l-9.887.013-3.753.028-3.489-.019-3.068.002c-3.065-.431-4.336-1.401-6.663-3.374-2.338-.673-2.338-.673-4.812-1-9.423-1.694-18.514-6.104-25.187-13l-3.437-1.875c-4.796-2.624-7.525-6.552-10.5-11.062-1.653-2.454-3.261-4.408-5.25-6.562-2.745-3.095-3.331-5.362-3.812-9.5l-3-2c-.415-2.225-.439-4.353-.496-6.613-.341-2.576-.341-2.576-2.504-4.671-2.342-3.18-2.501-4.663-2.502-8.56l-.028-3.488.034-3.738-.004-3.858.034-8.064.013-10.333.02-9.869-.009-3.75.038-3.469.016-3.056c.451-2.939 1.199-3.631 3.388-5.529.683-2.628.683-2.628 1-5.5.522-4.044 1.006-5.767 4-8.5l.688-3.125c1.132-4.584 4.189-7.32 7.363-10.672a25.38 25.38 0 0 0 4.012-5.953c2.841-4.766 6.687-6.923 11.375-9.687 2.293-1.398 4.274-2.899 6.375-4.562 3.903-2.981 7.541-4.451 12.188-6l2-1.125c2.116-.926 3.712-1.098 6-1.312 3.512-.358 5.319-1.179 8-3.562 3.056-1.019 5.185-1.145 8.386-1.177zm-5.261 54.802l-2.336 2.352c-5.133 5.205-6.856 7.547-7.312 14.832-.477 2.191-.477 2.191-1.981 3.379-2.333 2.827-1.884 5.395-1.894 9l-.009 2.118.016 4.428-.019 6.774.012 4.305.01 3.957c.412 3.426.774 4.172 3.388 6.23.266 1.98.266 1.98.25 4.188.5 5.952 3.622 8.777 7.75 12.813l2.184 2.324c5.903 6.189 11.292 11.763 20.199 12.305l5.742-.066 2.918.033c5.892-.061 9.237-.783 13.957-4.596l3.5-1.375c4.064-1.887 6.835-4.024 9.5-7.625.949-2.714.949-2.714 1-5l3-1 .313-3.312c.692-3.711.959-4.414 3.688-6.687 1.309-3.927 1.202-7.7 1.238-11.797l.024-2.627.032-5.508.105-8.381.025-5.359.053-2.513c-.021-5.781-1.269-9.006-4.479-13.815l-1.812-3.937c-3.049-6.097-6.916-11.56-13.5-13.937L1263 1779l-2-2c-4.663-1.384-9.55-1.256-14.375-1.312l-2.5-.088c-10.626-.11-15.96 5.791-23 13.025zm547.652-55.086l3.164.003 6.614.047 10.099.041 6.436.035 3.04.007c4.959.067 9.283.202 13.87 2.329l1 2 6.078.656c2.485.444 3.282 1.48 4.922 3.344l3 1c3.051 1.017 3.904 1.721 6 4l2.688 1.563L1838 1750v2l4 1 .25 1.875c.523 2.278.523 2.278 2.563 3 4.878 2.509 6.977 8.515 9.258 13.293 1.012 2.083 1.012 2.083 2.93 4.832l1 3.063c.786 3.018.786 3.018 3 4.938.26 3.276.366 6.51.391 9.795l.07 2.092.025 1.882c.455 2.526.455 2.526 2.523 5.468 2.422 4.065 2.513 7.458 2.381 12.104l-.017 2.324-.123 7.274-.055 4.963-.195 12.1c-3.021 1.741-5.182 2.248-8.657 2.241l-2.821.008-3.073-.022-3.253.001-10.648-.033-7.382-.009-19.432-.049-19.827-.04-38.908-.1c-.553 2.076-1 3.844-1 6h2c1.292 4.12 2.263 7.668 2 12l1.688.688c3.954 2.244 6.76 5.733 9.875 9 3.471 3.293 6.147 4.528 10.91 4.762l2.688.134 2.902.104 3.021.114c8.164.25 16.314.218 24.479.011l3.475-.054c6.295-.219 9.861-.79 14.963-4.759 2.703-.504 2.703-.504 5.25-.562 2.522-.003 2.522-.003 4.75-.437l2-3c2.5-.812 2.5-.812 5-1 2.916 2.916 2.344 5.984 2.371 9.895l.027 2.377.027 4.986.112 7.604.021 4.846.059 2.289c-.034 3.971-.452 5.793-2.934 8.952-3.154 2.411-5.855 3.095-9.684 4.052l-2.437 1.625c-2.71 1.454-3.659 1.495-6.625 1.375-3.819-.408-3.819-.408-5.799 1.476-2.871 2.046-4.792 1.905-8.297 1.912l-3.772.029-4.066-.018-4.184.009a1387.57 1387.57 0 0 1-8.763-.016 1196.81 1196.81 0 0 0-11.21.011h-8.64a632.55 632.55 0 0 0-4.132.007c-1.929.008-3.858-.006-5.786-.021l-3.321-.007c-3.343-.429-5.194-1.522-7.966-3.381-2.064-.452-2.064-.452-4.062-.5-4.091-.519-4.901-1.033-7.937-3.5l-5.873-2.14c-7.145-2.891-12.587-7.823-17.939-13.235l-1.982-1.922c-4.014-4.018-6.256-7.379-8.205-12.703l-2-3-.437-3.062L1702 1872l-3-2c-.512-2.82-.512-2.82-.687-6.125l-.199-3.32L1698 1858l-3-1c-1.128-2.926-1.141-5.823-1.177-8.933l-.039-2.964-.022-3.185-.024-3.296-.032-6.902-.105-10.527-.025-6.713-.053-3.167c.019-6.392.862-10.032 4.479-15.314.56-2.245.56-2.245.563-4.25.473-4.051.686-4.219 3.438-6.75l2-7 2-2 1.188-3.187c1.59-3.935 4.073-6.326 7.191-9.137 1.716-1.774 2.529-3.486 3.621-5.676l4-1 .883-1.809c1.31-2.569 2.795-3.901 4.992-5.754l2.055-1.754c4.012-3.263 7.12-5.069 12.07-6.684l2-2c2.209-.304 4.386-.378 6.613-.461 2.558-.352 2.558-.352 4.362-2.544 4.488-2.961 8.538-2.531 13.802-2.456zM1765 1778l-2.68 2.414-2.195 2.211-2.242 2.227c-2.882 3.288-4.044 5.871-4.32 10.211-.562 3.938-.562 3.938-2.125 5.938l-1.437 1 1 3c3.004 1.001 5.019 1.132 8.158 1.145l3.185.019 3.438.003 3.53.01 7.394.007 11.337.039 7.176.006 3.438.022 3.185-.009 2.806.004c2.622-.091 2.622-.091 5.353-2.247a70.1 70.1 0 0 0 .188-8.125l-.041-2.285-.146-5.59-1.949-.754c-2.051-1.246-2.051-1.246-2.633-3.086l-.23-2.098c-.365-2.156-.365-2.156-1.187-4.062-3.328-1.915-3.328-1.915-7-3l-1.617-1.539c-3.829-2.348-7.729-2.014-12.133-2.023l-2.633-.111c-6.933-.047-10.602 2.014-15.617 6.674zM389.055 1667.871l3.266-.01 3.554.006 3.621-.003 7.596.005 11.674-.006 7.359.004 3.554-.006 3.266.01 2.891.002C438 1668 438 1668 439 1669l.12 9.421.003 3.034-.009 10.148v7.242l-.008 15.633-.012 22.603-.018 36.669-.021 35.629-.001 2.217-.004 11.009L439 1914c-3.095.822-5.802 1.131-9.012 1.145l-3.013.019-3.233.003-3.332.01-6.965.007-10.692.039-6.762.006-3.245.022-2.994-.009-2.642.004C385 1915 385 1915 383 1913c-.25-1.812-.25-1.812-.249-4.054l-.014-2.586.016-2.857-.007-3.022.012-10.09-.006-7.208.01-17.583.01-20.457.023-36.487.021-35.442v-2.205-2.201l.014-40.299.005-14.275.017-19.194.004-7.067.012-9.602-.005-2.864c.029-7.63.029-7.63 6.193-7.635z"/>
</svg>